<svg width="1920" height="1080" viewBox="0 0 1920 1080" fill="none" xmlns="http://www.w3.org/2000/svg">
  <!-- Background gradient simulating office environment -->
  <defs>
    <linearGradient id="bg" x1="0%" y1="0%" x2="100%" y2="100%">
      <stop offset="0%" style="stop-color:#f8f9fa;stop-opacity:1" />
      <stop offset="100%" style="stop-color:#e9ecef;stop-opacity:1" />
    </linearGradient>
    
    <!-- Window light effect -->
    <radialGradient id="light" cx="30%" cy="20%">
      <stop offset="0%" style="stop-color:#ffffff;stop-opacity:0.8" />
      <stop offset="100%" style="stop-color:#ffffff;stop-opacity:0" />
    </radialGradient>
  </defs>
  
  <!-- Background -->
  <rect width="1920" height="1080" fill="url(#bg)"/>
  
  <!-- Light effect from window -->
  <ellipse cx="576" cy="216" rx="400" ry="300" fill="url(#light)" opacity="0.5"/>
  
  <!-- Simplified silhouettes of call center operators -->
  <!-- Operator 1 - Foreground -->
  <g transform="translate(400, 300)">
    <!-- Head -->
    <circle cx="0" cy="0" r="80" fill="#495057" opacity="0.3"/>
    <!-- Body -->
    <ellipse cx="0" cy="150" rx="120" ry="180" fill="#495057" opacity="0.3"/>
    <!-- Headset -->
    <path d="M-80,0 Q-100,-20 -100,-40 Q-100,-80 -60,-80 Q-20,-80 20,-80 Q60,-80 60,-40 Q60,-20 40,0" 
          stroke="#212529" stroke-width="8" fill="none" opacity="0.4"/>
    <circle cx="-70" cy="10" r="15" fill="#212529" opacity="0.4"/>
  </g>
  
  <!-- Operator 2 - Background -->
  <g transform="translate(800, 350)" opacity="0.2">
    <!-- Head -->
    <circle cx="0" cy="0" r="70" fill="#495057"/>
    <!-- Body -->
    <ellipse cx="0" cy="130" rx="100" ry="150" fill="#495057"/>
    <!-- Headset -->
    <path d="M-70,0 Q-85,-15 -85,-35 Q-85,-70 -50,-70 Q-15,-70 15,-70 Q50,-70 50,-35 Q50,-15 35,0" 
          stroke="#212529" stroke-width="6" fill="none"/>
    <circle cx="-60" cy="10" r="12" fill="#212529"/>
  </g>
  
  <!-- Abstract desk shapes -->
  <rect x="200" y="600" width="600" height="20" rx="10" fill="#adb5bd" opacity="0.3"/>
  <rect x="700" y="650" width="500" height="20" rx="10" fill="#adb5bd" opacity="0.2"/>
  
  <!-- Monitor shapes -->
  <rect x="250" y="450" width="200" height="120" rx="10" fill="#6c757d" opacity="0.3"/>
  <rect x="750" y="500" width="180" height="100" rx="8" fill="#6c757d" opacity="0.2"/>
</svg>