<svg width="108" height="108" viewBox="0 0 108 108" fill="none" xmlns="http://www.w3.org/2000/svg">
  <rect width="108" height="108" rx="8" fill="#EBF4FF"/>
  <g transform="translate(24, 24)">
    <rect x="4" y="16" width="52" height="32" rx="2" stroke="#3B82F6" stroke-width="2" fill="none"/>
    <rect x="8" y="20" width="8" height="6" rx="1" fill="#3B82F6"/>
    <rect x="20" y="20" width="8" height="6" rx="1" fill="#3B82F6"/>
    <rect x="32" y="20" width="8" height="6" rx="1" fill="#3B82F6"/>
    <rect x="44" y="20" width="8" height="6" rx="1" fill="#3B82F6"/>
    <path d="M4 30 L56 30" stroke="#3B82F6" stroke-width="2"/>
    <rect x="8" y="34" width="8" height="6" rx="1" fill="#3B82F6"/>
    <rect x="20" y="34" width="8" height="6" rx="1" fill="#3B82F6"/>
    <rect x="32" y="34" width="8" height="6" rx="1" fill="#3B82F6"/>
    <rect x="44" y="34" width="8" height="6" rx="1" fill="#3B82F6"/>
    <path d="M30 8 L30 16" stroke="#3B82F6" stroke-width="2"/>
    <circle cx="30" cy="8" r="4" stroke="#3B82F6" stroke-width="2" fill="none"/>
  </g>
</svg>