<svg width="108" height="108" viewBox="0 0 108 108" fill="none" xmlns="http://www.w3.org/2000/svg">
  <rect width="108" height="108" rx="8" fill="#EBF4FF"/>
  <g transform="translate(22, 22)">
    <rect x="4" y="16" width="56" height="40" rx="2" stroke="#3B82F6" stroke-width="2" fill="none"/>
    <rect x="12" y="24" width="8" height="6" rx="1" fill="#3B82F6"/>
    <rect x="24" y="24" width="8" height="6" rx="1" fill="#3B82F6"/>
    <rect x="36" y="24" width="8" height="6" rx="1" fill="#3B82F6"/>
    <rect x="48" y="24" width="8" height="6" rx="1" fill="#3B82F6"/>
    <rect x="12" y="34" width="8" height="6" rx="1" fill="#3B82F6"/>
    <rect x="24" y="34" width="8" height="6" rx="1" fill="#3B82F6"/>
    <rect x="36" y="34" width="8" height="6" rx="1" fill="#3B82F6"/>
    <rect x="48" y="34" width="8" height="6" rx="1" fill="#3B82F6"/>
    <rect x="28" y="44" width="8" height="12" rx="1" fill="#3B82F6"/>
    <path d="M32 4 L44 16 L20 16 Z" stroke="#3B82F6" stroke-width="2" fill="none"/>
  </g>
</svg>